<svg width="20" height="20" viewBox="0 0 20 20" fill="none" xmlns="http://www.w3.org/2000/svg">
<path d="M14.0001 5.75L13.9963 3.99791C13.9951 3.44644 13.5478 3.00002 12.9963 3.00004L10.9942 3.00013H4.54543C3.99295 3.00013 3.54515 3.44816 3.54543 4.00064L3.55027 13.5005C3.55055 14.0526 3.99819 14.5 4.55027 14.5H6.00006M14.0001 5.75V11.7499V13.5C14.0001 14.0523 13.5523 14.5 13.0001 14.5H6.00006M14.0001 5.75H15.4772C16.0295 5.75 16.4772 6.19771 16.4772 6.75V16C16.4772 16.5523 16.0295 17 15.4772 17H7.00006C6.44777 17 6.00006 16.5523 6.00006 16V14.5" stroke="#838A95"/>
<path fill-rule="evenodd" clip-rule="evenodd" d="M6.30566 7.00684C6.30566 6.73069 6.52952 6.50684 6.80566 6.50684H10.8057C11.0818 6.50684 11.3057 6.73069 11.3057 7.00684C11.3057 7.28298 11.0818 7.50684 10.8057 7.50684H6.80566C6.52952 7.50684 6.30566 7.28298 6.30566 7.00684Z" fill="#838A95"/>
<path fill-rule="evenodd" clip-rule="evenodd" d="M6.30566 10.0068C6.30566 9.73069 6.52952 9.50684 6.80566 9.50684H9.3819C9.65804 9.50684 9.8819 9.73069 9.8819 10.0068C9.8819 10.283 9.65804 10.5068 9.3819 10.5068H6.80566C6.52952 10.5068 6.30566 10.283 6.30566 10.0068Z" fill="#838A95"/>
<g style="mix-blend-mode:darken" opacity="0.01">
<rect width="20" height="20" fill="white"/>
</g>
</svg>
