<svg width="158" height="40" viewBox="0 0 158 40" fill="none" xmlns="http://www.w3.org/2000/svg">
<g clip-path="url(#clip0_240_36668)">
<path d="M26.2412 32.2661C26.6924 32.8795 26.8975 33.6416 26.8157 34.4005C25.5638 34.8688 24.2625 35.1902 22.9375 35.3584C24.751 34.9611 26.0971 33.7401 26.2402 32.2661L26.2412 32.2661Z" fill="url(#paint0_linear_240_36668)"/>
<path d="M34.6984 28.3309C34.6884 28.341 34.6804 28.3581 34.6714 28.3672C33.9314 29.4224 33.0693 30.385 32.1032 31.2346C31.1965 32.0392 29.3209 33.1422 29.419 33.0343C29.437 33.0162 30.1646 32.3285 30.4068 31.9857C30.569 31.7498 30.7031 31.5149 30.8112 31.28C31.0714 30.6922 31.1434 30.1306 30.9913 29.7697C30.9596 29.3728 30.6319 29.0663 30.2367 29.0639H27.1211C27.3543 28.0778 29.0687 27.3096 31.1515 27.3096C32.4625 27.3096 33.6385 27.6171 34.3741 28.0869C34.5002 28.1676 34.6083 28.2502 34.6984 28.3309Z" fill="url(#paint1_linear_240_36668)"/>
<path d="M22.9289 35.3773C22.7571 35.4171 22.5834 35.4474 22.4084 35.4681C22.1373 35.5037 21.8642 35.5216 21.5907 35.5215C21.4746 35.5215 21.3485 35.5215 21.2314 35.5124C21.6268 35.5034 22.0121 35.4761 22.3904 35.4398C22.5786 35.4136 22.7577 35.3955 22.9289 35.3773Z" fill="url(#paint2_linear_240_36668)"/>
<path d="M35.2189 29.2988C35.2189 30.2395 33.8898 31.0259 32.1123 31.2346C31.7994 31.2713 31.4846 31.2895 31.1695 31.2891C31.0534 31.2891 30.9453 31.2891 30.8292 31.279C31.0894 30.6922 31.1605 30.1306 31.0084 29.7697C30.9767 29.3728 30.649 29.0663 30.2538 29.0639H27.1392C27.3724 28.0778 29.0868 27.3096 31.1695 27.3096C32.4806 27.3096 33.6566 27.6171 34.3922 28.0869C34.5093 28.1595 34.6174 28.2412 34.7075 28.3218C34.7435 28.3581 34.7785 28.3854 34.8146 28.4227C35.0658 28.6929 35.2189 28.9913 35.2189 29.2998V29.2988Z" fill="url(#paint3_linear_240_36668)"/>
<path d="M34.6987 28.3309C34.7348 28.3672 34.7708 28.3945 34.8058 28.4308C34.7608 28.4126 34.7157 28.3945 34.6717 28.3672C34.5576 28.2988 34.4596 28.2063 34.3845 28.096C34.4959 28.1648 34.6011 28.2434 34.6987 28.3309Z" fill="url(#paint4_linear_240_36668)"/>
<path d="M38.1273 17.9127C38.1273 19.2426 37.9301 20.4636 37.5889 21.4496C37.5088 21.5847 37.4187 21.7208 37.3196 21.8378C37.4457 21.0514 37.5078 20.2468 37.5078 19.4231C37.5082 17.906 37.2846 16.3973 36.8442 14.9465C37.4007 15.3902 37.8401 16.1221 38.0823 16.9993C38.1183 17.2977 38.1273 17.6052 38.1273 17.9127Z" fill="url(#paint5_linear_240_36668)"/>
<path fill-rule="evenodd" clip-rule="evenodd" d="M39.1853 20.6531C39.0306 21.1452 38.9621 21.3632 39.0431 21.4043C39.1692 21.4759 39.5996 21.0605 40.9287 18.9977C40.9287 18.9977 41.1529 18.673 42.3118 16.4388C42.4818 16.1236 42.5596 15.7663 42.536 15.4084L42.533 15.3715C42.5151 15.153 42.4835 14.7651 42.2037 14.6119C41.929 14.4515 41.5839 14.6256 41.506 14.6649L41.5032 14.6663C41.1524 14.8425 40.9991 15.1743 40.9333 15.3166L40.9287 15.3267C40.1741 17.0084 39.6636 18.9977 39.6636 18.9977C39.4727 19.7391 39.3037 20.2764 39.1853 20.6531ZM47.4447 16.2759L47.429 16.2665C46.5572 15.7604 45.4263 16.1042 45.3192 16.4026L45.319 16.403C45.3088 16.4298 45.2744 16.5199 45.3192 16.5922C45.3574 16.6509 45.4287 16.6674 45.4925 16.6821C45.5174 16.6879 45.5412 16.6934 45.5614 16.701C45.7856 16.7908 45.8486 17.2616 45.7496 17.5963C45.6505 17.9301 45.3993 18.1116 45.058 18.3374C44.7347 18.5542 43.9811 18.9887 43.4336 19.1873L43.4276 19.1896C43.3534 19.2175 43.207 19.2727 43.1554 19.4051C43.138 19.4573 43.1437 19.5015 43.1502 19.5514C43.1572 19.6047 43.165 19.6646 43.1464 19.7479C43.1374 19.8114 43.1094 19.8749 43.0293 20.002C42.8672 20.246 42.67 20.4264 42.5269 20.5444C42.4728 20.5898 42.2847 20.743 41.9704 20.9689L41.9386 20.9915C41.7914 21.0964 41.6126 21.2237 41.3859 21.3581C41.0793 21.538 40.7618 21.6983 40.4351 21.838C40.0469 22.0061 39.7813 22.101 39.6142 22.1607C39.4486 22.2198 39.3798 22.2444 39.3843 22.2715C39.4023 22.3895 40.9195 22.208 42.1496 21.9731C42.674 21.8696 43.1858 21.709 43.6758 21.4942C44.5556 21.1231 44.6907 20.8691 44.7087 20.6977C44.7341 20.4851 44.608 20.2958 44.5488 20.207L44.5386 20.1915C44.3683 19.9542 44.1351 19.8485 43.9829 19.7795C43.8856 19.7353 43.8213 19.7062 43.828 19.6673C43.8329 19.6179 43.944 19.6036 44.1312 19.5796C44.2841 19.5599 44.4877 19.5338 44.7257 19.4767C44.9712 19.4247 45.1645 19.3545 45.29 19.309L45.3002 19.3053C45.4485 19.2552 45.5954 19.2007 45.7406 19.142C46.7914 18.6994 48.2186 17.6861 48.0395 16.8997C47.969 16.5899 47.6838 16.4191 47.4447 16.2759ZM46.145 23.1406C45.9829 22.7151 45.3724 22.6062 44.933 22.5346C44.5196 22.462 44.2054 22.4892 43.721 22.5346C43.1465 22.5891 42.6701 22.6879 42.2938 22.7786L42.208 22.7995C41.1078 23.0675 40.4172 23.2358 40.4172 23.4481C40.4172 23.6558 41.4491 23.8282 43.5228 24.1619C44.914 24.3888 45.5245 24.4513 45.9028 24.0631C46.127 23.8181 46.2611 23.438 46.145 23.1406ZM43.5327 23.6921C44.5195 23.7737 45.0219 23.7919 45.13 23.556C45.1841 23.4481 45.13 23.312 45.068 23.2303C45.04 23.1859 44.9329 23.0407 44.3674 22.9954C44.1242 22.9772 43.918 22.9863 43.6498 23.0045C43.2607 23.033 42.9497 23.0784 42.8261 23.0965C42.7926 23.1014 42.7729 23.1043 42.7691 23.1043C42.6958 23.116 42.6256 23.1273 42.5583 23.138C41.8012 23.2591 41.4229 23.3195 41.4229 23.3936C41.4229 23.5008 42.1097 23.5631 43.4678 23.6862L43.5327 23.6921Z" fill="#3485FF"/>
<path fill-rule="evenodd" clip-rule="evenodd" d="M38.1015 16.9994C38.0759 16.6786 38.0398 16.3589 37.9934 16.0405V16.0314C37.9489 15.2619 37.8469 14.4968 37.6882 13.7428C36.8355 9.70985 34.5726 7.10458 33.7919 6.22742C30.4071 2.42035 26.2046 1.25483 24.5802 0.882795C23.2692 0.647878 15.2074 -0.663829 8.09652 4.86228C6.73338 5.92092 0.386098 11.1385 0.197942 19.6308C0.000777572 28.7109 6.95857 35.9016 13.7813 38.3254C19.1497 40.233 24.33 39.1119 25.2108 38.9042C26.2066 38.6692 29.3492 37.8637 32.2847 35.7565C32.7578 35.4235 33.2076 35.0579 33.6308 34.6625C34.2413 34.0838 36.0278 32.3738 36.8274 29.6063C36.9606 29.1526 37.0316 28.7614 37.0777 28.5123L37.0877 28.4579C36.4296 28.4221 35.7701 28.4221 35.112 28.4579C35.076 28.4579 35.041 28.4579 34.9959 28.4488C34.9319 28.438 34.8687 28.4229 34.8068 28.4034C34.7707 28.3671 34.7357 28.3308 34.6997 28.3046C34.6021 28.2167 34.4969 28.1378 34.3854 28.0687C33.6398 27.5989 32.4738 27.2914 31.1627 27.2914C29.079 27.2914 27.3646 28.0596 27.1314 29.0457H30.246C30.327 29.0457 30.5692 29.0729 30.7584 29.2534C30.8325 29.3209 30.8755 29.3945 30.8985 29.4328C30.9525 29.5315 30.9871 29.6396 31.0006 29.7514C31.0907 30.4834 30.9285 31.0178 30.8204 31.2618C30.6833 31.5652 30.5202 31.8113 30.4281 31.9504L30.4171 31.9675C30.231 32.2254 30.0205 32.4644 29.7886 32.6814C29.5604 32.9032 29.3642 33.0544 29.1891 33.1895L29.119 33.2439L29.097 33.2601C28.8851 33.4205 28.6664 33.5715 28.4415 33.7128C27.9349 34.0136 27.3887 34.241 26.8191 34.3883C26.8286 34.2958 26.834 34.203 26.8351 34.11C26.8351 33.5988 26.717 33.122 26.5119 32.7106C26.4336 32.5508 26.3404 32.3989 26.2336 32.2569C26.0895 33.7309 24.7344 34.9519 22.9299 35.3582C22.7497 35.3854 22.5706 35.4036 22.3914 35.4217C22.0051 35.458 21.6188 35.4852 21.2325 35.4943C21.0353 35.5034 20.8381 35.5034 20.642 35.5034H20.64C11.3222 35.5034 3.77092 28.2945 3.77092 19.405C3.77092 10.5144 11.3212 3.30658 20.64 3.30658C27.1754 3.30658 32.8401 6.85152 35.6425 12.0429C35.6442 12.0462 35.6458 12.0496 35.6475 12.053H35.6425C36.1403 12.9737 36.5434 13.9433 36.8455 14.9466C37.2858 16.3974 37.5094 17.9061 37.509 19.4231V19.4735C37.5072 20.2624 37.4443 21.0498 37.3209 21.8288L37.3229 21.8268L37.3209 21.8368C37.4199 21.7199 37.509 21.5848 37.5911 21.4487C37.9284 20.4707 38.1255 19.2628 38.1285 17.9471V17.9037C38.1284 17.6021 38.1197 17.3005 38.1025 16.9994H38.1015Z" fill="#3485FF"/>
<path fill-rule="evenodd" clip-rule="evenodd" d="M15.1282 13.1482C15.1198 13.1058 15.1131 13.0631 15.1082 13.0202L15.3364 13.4265C15.3348 13.3694 15.3338 13.3122 15.3334 13.2551L15.1092 13.0202L14.849 9.56496C14.8081 8.95094 15.0111 8.34572 15.4134 7.8826C15.8157 7.41948 16.3842 7.13643 16.9938 7.09581L18.7452 6.97885C18.9424 6.96474 19.1365 6.97583 19.3237 7.01111C19.6874 6.99293 20.0519 7.01831 20.4096 7.08673C21.3584 7.27047 22.2239 7.7552 22.8797 8.47002C26.7954 8.23616 30.357 10.7445 31.4838 14.5295L31.691 15.9047L31.694 15.9259L31.7 15.9229L31.746 16.2163L31.7541 16.2394L31.8341 16.7637L32.5887 21.6748L32.6068 21.816L32.6868 22.3261L32.7229 22.5883V22.6427L32.7239 22.6901C32.8221 23.3985 33.423 23.926 34.133 23.9272C34.6645 23.9272 35.1199 23.6288 35.3681 23.1972L35.3801 23.167L35.4802 22.9321L35.6403 22.552C35.656 22.5139 35.6796 22.4795 35.7093 22.4511C35.7964 22.361 35.929 22.3331 36.0446 22.3806L36.1437 22.4259V22.435L36.6071 22.6296L37.2656 22.9048C37.2706 22.9099 37.2757 22.9119 37.2797 22.9149C37.2844 22.9169 37.2888 22.9196 37.2927 22.923L37.3017 22.9331C37.4098 23.0137 37.4548 23.1579 37.4008 23.285L37.1986 23.7709L37.1936 23.7911V23.8012C37.1225 24.0633 37.0234 24.3073 36.8883 24.5422C36.8843 24.5462 36.8823 24.5513 36.8803 24.5553C36.8773 24.5604 36.8753 24.5654 36.8703 24.5694C36.8655 24.5767 36.8608 24.5841 36.8563 24.5916L36.8513 24.5997L36.8483 24.6057L36.8263 24.642C36.8263 24.6461 36.8233 24.6481 36.8213 24.6501C36.8193 24.6531 36.8173 24.6551 36.8173 24.6602C36.2068 25.6281 35.0838 26.3056 33.9449 26.3056H33.1812C31.8099 26.3016 30.6037 25.3918 30.2138 24.0673L30.2008 24.0169C30.1917 23.9887 30.1841 23.9601 30.1777 23.9312L30.1707 23.901H30.1687L30.1918 24.0089C30.1827 23.9803 30.1751 23.9514 30.1687 23.9222L30.1637 23.9H30.1557C30.1394 23.8404 30.1274 23.7798 30.1197 23.7185L29.9395 22.923L29.9305 22.8867C29.9146 22.8367 29.9029 22.7854 29.8955 22.7334L29.8595 22.5621V22.6246V22.6225V22.6609C29.8522 22.6398 29.8505 22.6172 29.8545 22.5953L29.8555 22.5913L29.8545 22.5812C29.8523 22.5716 29.851 22.5618 29.8505 22.552C29.8505 22.5358 29.8505 22.5167 29.8485 22.4975L29.8415 22.4622L29.8315 22.4169V22.3896L29.8285 22.3705L29.8234 22.3775L29.8134 22.3896L29.8114 22.3917L29.8094 22.3937L29.8044 22.3967C29.7994 22.3997 29.7964 22.4017 29.7964 22.4068L29.7824 22.3352L29.7784 22.31L29.7694 22.2626C29.6389 21.6668 29.2737 21.1501 28.7576 20.8309C28.4158 20.6312 28.0277 20.5262 27.6326 20.5264C27.5606 20.5264 27.4885 20.5264 27.4174 20.5355C27.3814 20.5355 27.3454 20.5355 27.3094 20.5446C27.2035 20.5635 27.0986 20.5877 26.9951 20.6172L26.915 20.6444C26.861 20.6625 26.8149 20.6797 26.7709 20.6978C26.7516 20.7034 26.7328 20.7108 26.7149 20.72C26.6837 20.7345 26.653 20.75 26.6228 20.7664L26.5647 20.7976L26.5287 20.8208L26.4927 20.843L26.4126 20.8975C26.4026 20.8975 26.3936 20.9065 26.3846 20.9156C26.3576 20.9252 26.333 20.9407 26.3125 20.961C26.2986 20.9707 26.2853 20.9811 26.2725 20.9922L26.2325 21.0235C26.2037 21.0418 26.1768 21.0631 26.1524 21.087C26.1244 21.1052 26.0973 21.1324 26.0793 21.1505L26.0163 21.214L25.9943 21.2413C25.9876 21.2509 25.9802 21.26 25.9722 21.2685C25.9722 21.2776 25.9622 21.2866 25.9542 21.2957C25.9401 21.3087 25.928 21.3236 25.9182 21.3401C25.9084 21.3501 25.8994 21.3609 25.8912 21.3723C25.8827 21.3832 25.8737 21.3937 25.8641 21.4036C25.844 21.4261 25.8259 21.4504 25.8101 21.4762C25.7871 21.5029 25.767 21.5319 25.7501 21.5629C25.743 21.5807 25.7328 21.5971 25.72 21.6113C25.7088 21.6403 25.694 21.6677 25.676 21.693C25.666 21.7071 25.66 21.7202 25.653 21.7333C25.647 21.7474 25.6396 21.761 25.631 21.7736C25.6305 21.7787 25.6288 21.7835 25.626 21.7877C25.624 21.7928 25.622 21.7978 25.622 21.8018C25.6168 21.8157 25.6108 21.8291 25.6039 21.8422C25.5969 21.8563 25.5899 21.8694 25.5859 21.8825C25.5811 21.8997 25.5751 21.9166 25.5679 21.9329C25.5605 21.9492 25.5545 21.9661 25.5499 21.9833V21.9914L25.5369 22.0368L25.5229 22.0821V22.0912L25.5099 22.1416C25.5049 22.1567 25.4998 22.1719 25.4958 22.191C25.4858 22.2236 25.4767 22.2566 25.4688 22.2898V22.2999C25.4649 22.3162 25.4619 22.3327 25.4598 22.3493C25.4578 22.3644 25.4558 22.3796 25.4508 22.3987C25.4418 22.435 25.4328 22.4713 25.4328 22.5076C25.4325 22.5255 25.4312 22.5433 25.4288 22.561C25.426 22.5791 25.4243 22.5972 25.4238 22.6155C25.423 22.6188 25.4223 22.6222 25.4218 22.6256L25.4198 22.6336L25.4178 22.6427C25.4148 22.6609 25.4148 22.679 25.4148 22.6972V26.5859H25.3888V27.9873C25.3849 28.7503 24.7719 29.3678 24.0146 29.3716H20.5137C19.7563 29.3689 19.1428 28.7513 19.1396 27.9883V26.236C18.9864 25.0605 17.9548 24.2058 16.7803 24.2813C15.6057 24.3568 14.6904 25.3367 14.6868 26.5224V26.5859H14.6598V27.9974C14.6612 28.3647 14.5169 28.7173 14.2591 28.977C14.0013 29.2367 13.6513 29.3821 13.2867 29.3807H9.78476C9.02738 29.3774 8.41436 28.7594 8.41162 27.9964V19.4144C8.41162 19.3539 8.41562 19.2934 8.42263 19.2349C8.5097 16.2677 10.7496 13.8348 13.619 13.4537C13.619 13.5172 13.628 13.5898 13.637 13.6533C13.72 14.1252 13.8381 14.5759 13.9572 15.0286C14.0293 15.3038 14.1014 15.5791 14.1664 15.8593C14.2985 16.429 14.4727 16.9129 14.6638 17.4463L14.7939 17.8133C15.0341 18.5039 15.2873 19.002 15.5295 19.4779L15.6206 19.6583C15.7976 20.0326 16.0016 20.3931 16.2311 20.7372L16.2511 20.7674L16.2852 20.8158L16.2942 20.8249C16.3572 20.9247 16.4283 21.0144 16.5004 21.1052L16.5504 21.1677C16.5884 21.21 16.6285 21.2524 16.6705 21.2957C16.9587 21.576 17.5062 22.0458 18.3499 22.308C18.6561 22.4028 18.9614 22.4148 19.2677 22.3866L22.5484 20.7724L19.1956 17.2789C18.9794 17.9524 18.6471 18.4283 18.2298 18.6007L19.3908 20.6777C19.2388 20.7652 19.0652 20.8072 18.8903 20.7987C18.6924 20.784 18.5005 20.7233 18.3299 20.6212L18.3139 20.6262C18.2598 20.599 18.2058 20.5718 18.1607 20.5355C17.9339 20.3832 17.7363 20.1909 17.5773 19.9679C16.9377 19.2198 16.3392 18.019 15.9359 16.5873L15.9319 16.5722C15.9238 16.5429 15.9158 16.5137 15.9079 16.4844C15.8991 16.4603 15.8904 16.4361 15.8818 16.4118C15.8755 16.4059 15.8691 16.3998 15.8628 16.3937C15.8547 16.3594 15.8467 16.3252 15.8388 16.2909C15.6792 15.823 15.5577 15.3429 15.4755 14.8551C15.3164 14.3057 15.2223 13.7491 15.1352 13.1916L15.1282 13.1482ZM26.7446 15.5215C26.6118 15.2988 26.5432 15.0432 26.5465 14.7834C26.544 14.0917 27.0305 13.4961 27.7048 13.3653C28.3791 13.2346 29.0503 13.6058 29.3028 14.2491C29.3738 14.4215 29.4099 14.602 29.4099 14.8016V14.8591C29.1477 14.4327 28.6866 14.1719 28.1888 14.1684C27.7885 14.1684 27.4292 14.3318 27.17 14.5939C26.9217 14.8411 26.7709 15.1707 26.7456 15.5215H26.7446Z" fill="url(#paint6_linear_240_36668)"/>
<path d="M68.0188 29.5043L67.2735 26.8426C66.876 27.1346 66.3681 27.3508 65.7498 27.4912C65.1315 27.6316 64.5408 27.7017 63.9777 27.7017C63.7237 27.7017 63.4864 27.6652 63.2655 27.5922C63.0447 27.5192 62.7963 27.348 62.5202 27.0784C62.2442 26.8089 62.0068 26.4523 61.8081 26.0087C61.6093 25.5651 61.441 24.9277 61.3029 24.0966C61.1649 23.2656 61.0959 22.2941 61.0959 21.1822C61.0959 19.3179 61.2008 17.8888 61.4106 16.8949C61.6204 15.9009 61.924 15.2327 62.3215 14.8902C62.719 14.5476 63.2876 14.3763 64.0274 14.3763C64.1599 14.3763 64.3255 14.4044 64.5242 14.4606L65.3854 16.4653H67.9028L68.1513 12.5906C68.1181 12.5457 68.0657 12.4839 67.9939 12.4053C67.9222 12.3267 67.7455 12.1863 67.464 11.9842C67.1824 11.782 66.8677 11.6023 66.5199 11.4451C66.1721 11.2879 65.6974 11.1475 65.0956 11.0239C64.4939 10.9004 63.8507 10.8386 63.1662 10.8386C61.6756 10.8386 60.4114 11.0689 59.3735 11.5293C58.3356 11.9898 57.5213 12.6777 56.9306 13.593C56.3399 14.5083 55.9176 15.5696 55.6636 16.7769C55.4097 17.9843 55.2827 19.419 55.2827 21.0812C55.2827 22.6422 55.4097 24.0152 55.6636 25.2001C55.9176 26.3849 56.3344 27.4462 56.9141 28.384C57.4937 29.3218 58.297 30.035 59.3238 30.5235C60.3506 31.012 61.5873 31.2563 63.0337 31.2563C63.7182 31.2563 64.3586 31.1974 64.9548 31.0794C65.5511 30.9615 66.0286 30.8155 66.3874 30.6414C66.7463 30.4673 67.0554 30.2933 67.3149 30.1192C67.5744 29.9451 67.7593 29.8019 67.8697 29.6896L68.0188 29.5043Z" fill="#29292E"/>
<path d="M68.0188 29.5043L67.2735 26.8426C66.876 27.1346 66.3681 27.3508 65.7498 27.4912C65.1315 27.6316 64.5408 27.7017 63.9777 27.7017C63.7237 27.7017 63.4864 27.6652 63.2655 27.5922C63.0447 27.5192 62.7963 27.348 62.5202 27.0784C62.2442 26.8089 62.0068 26.4523 61.8081 26.0087C61.6093 25.5651 61.441 24.9277 61.3029 24.0966C61.1649 23.2656 61.0959 22.2941 61.0959 21.1822C61.0959 19.3179 61.2008 17.8888 61.4106 16.8949C61.6204 15.9009 61.924 15.2327 62.3215 14.8902C62.719 14.5476 63.2876 14.3763 64.0274 14.3763C64.1599 14.3763 64.3255 14.4044 64.5242 14.4606L65.3854 16.4653H67.9028L68.1513 12.5906C68.1181 12.5457 68.0657 12.4839 67.9939 12.4053C67.9222 12.3267 67.7455 12.1863 67.464 11.9842C67.1824 11.782 66.8677 11.6023 66.5199 11.4451C66.1721 11.2879 65.6974 11.1475 65.0956 11.0239C64.4939 10.9004 63.8507 10.8386 63.1662 10.8386C61.6756 10.8386 60.4114 11.0689 59.3735 11.5293C58.3356 11.9898 57.5213 12.6777 56.9306 13.593C56.3399 14.5083 55.9176 15.5696 55.6636 16.7769C55.4097 17.9843 55.2827 19.419 55.2827 21.0812C55.2827 22.6422 55.4097 24.0152 55.6636 25.2001C55.9176 26.3849 56.3344 27.4462 56.9141 28.384C57.4937 29.3218 58.297 30.035 59.3238 30.5235C60.3506 31.012 61.5873 31.2563 63.0337 31.2563C63.7182 31.2563 64.3586 31.1974 64.9548 31.0794C65.5511 30.9615 66.0286 30.8155 66.3874 30.6414C66.7463 30.4673 67.0554 30.2933 67.3149 30.1192C67.5744 29.9451 67.7593 29.8019 67.8697 29.6896L68.0188 29.5043Z" fill="#29292E"/>
<path d="M74.8261 30.9029V21.0815C74.8371 21.0702 74.8951 21.0197 75 20.9299C75.1048 20.84 75.1711 20.7839 75.1987 20.7614C75.2263 20.7389 75.287 20.694 75.3809 20.6266C75.4747 20.5592 75.5465 20.5143 75.5962 20.4919C75.6459 20.4694 75.7149 20.4357 75.8032 20.3908C75.8915 20.3459 75.9771 20.3178 76.0599 20.3065C76.1427 20.2953 76.2283 20.2897 76.3166 20.2897C77.233 20.2897 77.6747 20.8175 77.6416 21.8732V30.9029H83.107V22.3618C83.107 22.2832 83.1125 22.1765 83.1235 22.0417C83.1235 21.9069 83.1235 21.8059 83.1235 21.7385C83.1235 19.7618 82.8116 18.3524 82.1878 17.5101C81.564 16.6677 80.4957 16.2466 78.9831 16.2466C78.5525 16.2466 78.1136 16.3336 77.6664 16.5077C77.2192 16.6818 76.8356 16.8896 76.5154 17.131C76.1952 17.3725 75.9053 17.6168 75.6459 17.8638C75.3864 18.1109 75.1904 18.3243 75.0579 18.504L74.8592 18.7567V8.83423H73.7827L68.4663 9.67654V11.2432L69.46 11.8497V30.9029H74.8261Z" fill="#29292E"/>
<path d="M74.8261 30.9029V21.0815C74.8371 21.0702 74.8951 21.0197 75 20.9299C75.1048 20.84 75.1711 20.7839 75.1987 20.7614C75.2263 20.7389 75.287 20.694 75.3809 20.6266C75.4747 20.5592 75.5465 20.5143 75.5962 20.4919C75.6459 20.4694 75.7149 20.4357 75.8032 20.3908C75.8915 20.3459 75.9771 20.3178 76.0599 20.3065C76.1427 20.2953 76.2283 20.2897 76.3166 20.2897C77.233 20.2897 77.6747 20.8175 77.6416 21.8732V30.9029H83.107V22.3618C83.107 22.2832 83.1125 22.1765 83.1235 22.0417C83.1235 21.9069 83.1235 21.8059 83.1235 21.7385C83.1235 19.7618 82.8116 18.3524 82.1878 17.5101C81.564 16.6677 80.4957 16.2466 78.9831 16.2466C78.5525 16.2466 78.1136 16.3336 77.6664 16.5077C77.2192 16.6818 76.8356 16.8896 76.5154 17.131C76.1952 17.3725 75.9053 17.6168 75.6459 17.8638C75.3864 18.1109 75.1904 18.3243 75.0579 18.504L74.8592 18.7567V8.83423H73.7827L68.4663 9.67654V11.2432L69.46 11.8497V30.9029H74.8261Z" fill="#29292E"/>
<path d="M92.3478 29.4038L92.8778 30.9031H97.4157L96.952 29.5891V22.7326C96.952 21.4972 96.8582 20.4781 96.6705 19.675C96.4828 18.872 96.1653 18.2094 95.7182 17.6872C95.271 17.1649 94.6886 16.7943 93.9709 16.5753C93.2532 16.3563 92.3423 16.2468 91.2382 16.2468C89.9905 16.2468 88.7649 16.4349 87.5614 16.8112C86.3579 17.1874 85.3808 17.6226 84.63 18.1168L85.69 20.4079C86.1095 20.1832 86.6892 19.9895 87.4289 19.8267C88.1687 19.6638 88.8809 19.5824 89.5654 19.5824C90.3604 19.5824 90.9373 19.7228 91.2961 20.0035C91.655 20.2843 91.8344 20.7672 91.8344 21.4523V21.7556C91.459 21.7556 91.067 21.7724 90.6585 21.8061C90.25 21.8398 89.7863 21.9072 89.2673 22.0083C88.7484 22.1093 88.2543 22.2357 87.785 22.3873C87.3158 22.5389 86.8493 22.7467 86.3856 23.0106C85.9218 23.2745 85.5243 23.575 85.1931 23.9119C84.8619 24.2488 84.5914 24.6615 84.3816 25.1501C84.1718 25.6386 84.0669 26.1749 84.0669 26.7589C84.0669 29.7575 85.5575 31.2569 88.5386 31.2569C88.9802 31.2569 89.4108 31.1923 89.8304 31.0631C90.25 30.934 90.6061 30.7795 90.8987 30.5999C91.1912 30.4202 91.4507 30.2405 91.6771 30.0608C91.9034 29.8811 92.0718 29.7238 92.1822 29.5891L92.3478 29.4038ZM91.0394 28.2919C90.1009 28.2919 89.6317 27.59 89.6317 26.1861C89.6317 25.4 89.8304 24.8188 90.2279 24.4425C90.6254 24.0663 91.1609 23.8782 91.8344 23.8782V27.9213C91.8344 27.9213 91.8013 27.9522 91.735 28.014C91.6688 28.0757 91.5722 28.1375 91.4452 28.1993C91.3182 28.261 91.183 28.2919 91.0394 28.2919Z" fill="#29292E"/>
<path d="M92.3478 29.4038L92.8778 30.9031H97.4157L96.952 29.5891V22.7326C96.952 21.4972 96.8582 20.4781 96.6705 19.675C96.4828 18.872 96.1653 18.2094 95.7182 17.6872C95.271 17.1649 94.6886 16.7943 93.9709 16.5753C93.2532 16.3563 92.3423 16.2468 91.2382 16.2468C89.9905 16.2468 88.7649 16.4349 87.5614 16.8112C86.3579 17.1874 85.3808 17.6226 84.63 18.1168L85.69 20.4079C86.1095 20.1832 86.6892 19.9895 87.4289 19.8267C88.1687 19.6638 88.8809 19.5824 89.5654 19.5824C90.3604 19.5824 90.9373 19.7228 91.2961 20.0035C91.655 20.2843 91.8344 20.7672 91.8344 21.4523V21.7556C91.459 21.7556 91.067 21.7724 90.6585 21.8061C90.25 21.8398 89.7863 21.9072 89.2673 22.0083C88.7484 22.1093 88.2543 22.2357 87.785 22.3873C87.3158 22.5389 86.8493 22.7467 86.3856 23.0106C85.9218 23.2745 85.5243 23.575 85.1931 23.9119C84.8619 24.2488 84.5914 24.6615 84.3816 25.1501C84.1718 25.6386 84.0669 26.1749 84.0669 26.7589C84.0669 29.7575 85.5575 31.2569 88.5386 31.2569C88.9802 31.2569 89.4108 31.1923 89.8304 31.0631C90.25 30.934 90.6061 30.7795 90.8987 30.5999C91.1912 30.4202 91.4507 30.2405 91.6771 30.0608C91.9034 29.8811 92.0718 29.7238 92.1822 29.5891L92.3478 29.4038ZM91.0394 28.2919C90.1009 28.2919 89.6317 27.59 89.6317 26.1861C89.6317 25.4 89.8304 24.8188 90.2279 24.4425C90.6254 24.0663 91.1609 23.8782 91.8344 23.8782V27.9213C91.8344 27.9213 91.8013 27.9522 91.735 28.014C91.6688 28.0757 91.5722 28.1375 91.4452 28.1993C91.3182 28.261 91.183 28.2919 91.0394 28.2919Z" fill="#29292E"/>
<path d="M102.931 31.2567C103.682 31.2567 104.364 31.1725 104.976 31.004C105.589 30.8356 106.028 30.6699 106.293 30.5071C106.558 30.3442 106.773 30.1786 106.939 30.0101V27.719C106.818 27.8201 106.663 27.8987 106.475 27.9549C106.288 28.011 106.078 28.0391 105.846 28.0391C105.316 28.0391 104.924 27.8931 104.67 27.6011C104.416 27.3091 104.289 26.7139 104.289 25.8154V19.5486H107.055V16.5836H104.339V12.6584H101.424L99.7346 16.5836L97.7803 17.2069V19.5486H98.923V25.2763C98.923 27.4439 99.2184 28.9825 99.8091 29.8922C100.4 30.8019 101.44 31.2567 102.931 31.2567Z" fill="#29292E"/>
<path d="M102.931 31.2567C103.682 31.2567 104.364 31.1725 104.976 31.004C105.589 30.8356 106.028 30.6699 106.293 30.5071C106.558 30.3442 106.773 30.1786 106.939 30.0101V27.719C106.818 27.8201 106.663 27.8987 106.475 27.9549C106.288 28.011 106.078 28.0391 105.846 28.0391C105.316 28.0391 104.924 27.8931 104.67 27.6011C104.416 27.3091 104.289 26.7139 104.289 25.8154V19.5486H107.055V16.5836H104.339V12.6584H101.424L99.7346 16.5836L97.7803 17.2069V19.5486H98.923V25.2763C98.923 27.4439 99.2184 28.9825 99.8091 29.8922C100.4 30.8019 101.44 31.2567 102.931 31.2567Z" fill="#29292E"/>
<path d="M120.139 29.1168L120.338 30.9025H123.286L123.302 19.3123H115.932V22.7489L118.119 23.2543V24.9727C118.119 25.5791 118.063 26.0761 117.953 26.4635C117.843 26.851 117.671 27.143 117.44 27.3396C117.208 27.5361 116.959 27.6709 116.694 27.7439C116.429 27.8169 116.104 27.8534 115.717 27.8534C114.933 27.8534 114.412 27.2637 114.152 26.0845C113.893 24.9053 113.763 23.0971 113.763 20.66C113.763 19.492 113.813 18.5009 113.912 17.6866C114.011 16.8724 114.141 16.2266 114.301 15.7493C114.461 15.272 114.682 14.907 114.964 14.6543C115.245 14.4016 115.529 14.236 115.817 14.1573C116.104 14.0787 116.468 14.0394 116.91 14.0394C117.451 14.0394 117.843 14.1068 118.086 14.2416L119.03 16.4821H122.044L122.292 12.6075C122.27 12.585 122.24 12.5513 122.201 12.5064C122.162 12.4615 122.066 12.3772 121.911 12.2537C121.757 12.1302 121.588 12.0151 121.406 11.9084C121.224 11.8017 120.976 11.6781 120.661 11.5377C120.346 11.3974 120.012 11.2794 119.659 11.184C119.306 11.0885 118.878 11.0071 118.375 10.9397C117.873 10.8723 117.346 10.8386 116.794 10.8386C115.568 10.8386 114.475 10.9481 113.514 11.1671C112.554 11.3861 111.737 11.7146 111.063 12.1526C110.39 12.5906 109.821 13.1044 109.357 13.6941C108.894 14.2837 108.529 14.9828 108.264 15.7914C107.999 16.6 107.809 17.448 107.693 18.3352C107.577 19.2225 107.519 20.222 107.519 21.3339C107.519 22.8276 107.654 24.1584 107.925 25.3264C108.195 26.4944 108.623 27.5333 109.208 28.443C109.794 29.3527 110.586 30.049 111.585 30.5319C112.584 31.0149 113.768 31.2563 115.137 31.2563C117.07 31.2563 118.737 30.5432 120.139 29.1168Z" fill="#29292E"/>
<path d="M120.139 29.1168L120.338 30.9025H123.286L123.302 19.3123H115.932V22.7489L118.119 23.2543V24.9727C118.119 25.5791 118.063 26.0761 117.953 26.4635C117.843 26.851 117.671 27.143 117.44 27.3396C117.208 27.5361 116.959 27.6709 116.694 27.7439C116.429 27.8169 116.104 27.8534 115.717 27.8534C114.933 27.8534 114.412 27.2637 114.152 26.0845C113.893 24.9053 113.763 23.0971 113.763 20.66C113.763 19.492 113.813 18.5009 113.912 17.6866C114.011 16.8724 114.141 16.2266 114.301 15.7493C114.461 15.272 114.682 14.907 114.964 14.6543C115.245 14.4016 115.529 14.236 115.817 14.1573C116.104 14.0787 116.468 14.0394 116.91 14.0394C117.451 14.0394 117.843 14.1068 118.086 14.2416L119.03 16.4821H122.044L122.292 12.6075C122.27 12.585 122.24 12.5513 122.201 12.5064C122.162 12.4615 122.066 12.3772 121.911 12.2537C121.757 12.1302 121.588 12.0151 121.406 11.9084C121.224 11.8017 120.976 11.6781 120.661 11.5377C120.346 11.3974 120.012 11.2794 119.659 11.184C119.306 11.0885 118.878 11.0071 118.375 10.9397C117.873 10.8723 117.346 10.8386 116.794 10.8386C115.568 10.8386 114.475 10.9481 113.514 11.1671C112.554 11.3861 111.737 11.7146 111.063 12.1526C110.39 12.5906 109.821 13.1044 109.357 13.6941C108.894 14.2837 108.529 14.9828 108.264 15.7914C107.999 16.6 107.809 17.448 107.693 18.3352C107.577 19.2225 107.519 20.222 107.519 21.3339C107.519 22.8276 107.654 24.1584 107.925 25.3264C108.195 26.4944 108.623 27.5333 109.208 28.443C109.794 29.3527 110.586 30.049 111.585 30.5319C112.584 31.0149 113.768 31.2563 115.137 31.2563C117.07 31.2563 118.737 30.5432 120.139 29.1168Z" fill="#29292E"/>
<path d="M124.958 30.9028H135.376V26.388H130.44V11.1589H124.958V30.9028Z" fill="#29292E"/>
<path d="M124.958 30.9028H135.376V26.388H130.44V11.1589H124.958V30.9028Z" fill="#29292E"/>
<path d="M141.123 30.9028L141.636 19.2957L141.736 15.0167L144.783 28.9318H149.106L151.64 15.0167L151.838 19.2957L152.683 30.9028H157.834L156.409 11.1589H149.487L148.195 17.7964L147.565 21.1319L146.903 17.7795L145.445 11.1589H137.678L136.138 30.9028H141.123Z" fill="#29292E"/>
<path d="M141.123 30.9028L141.636 19.2957L141.736 15.0167L144.783 28.9318H149.106L151.64 15.0167L151.838 19.2957L152.683 30.9028H157.834L156.409 11.1589H149.487L148.195 17.7964L147.565 21.1319L146.903 17.7795L145.445 11.1589H137.678L136.138 30.9028H141.123Z" fill="#29292E"/>
</g>
<g style="mix-blend-mode:darken" opacity="0.01">
<rect width="158" height="40" fill="white"/>
</g>
<defs>
<linearGradient id="paint0_linear_240_36668" x1="22.2427" y1="33.7909" x2="25.8404" y2="35.4304" gradientUnits="userSpaceOnUse">
<stop stop-color="#504AF4"/>
<stop offset="1" stop-color="#3E71FB"/>
</linearGradient>
<linearGradient id="paint1_linear_240_36668" x1="25.645" y1="30.1143" x2="32.3723" y2="33.6547" gradientUnits="userSpaceOnUse">
<stop stop-color="#504AF4"/>
<stop offset="1" stop-color="#3E71FB"/>
</linearGradient>
<linearGradient id="paint2_linear_240_36668" x1="20.7256" y1="35.4442" x2="20.8076" y2="36.0641" gradientUnits="userSpaceOnUse">
<stop stop-color="#504AF4"/>
<stop offset="1" stop-color="#3E71FB"/>
</linearGradient>
<linearGradient id="paint3_linear_240_36668" x1="23.7973" y1="29.0612" x2="26.684" y2="34.5684" gradientUnits="userSpaceOnUse">
<stop stop-color="#504AF4"/>
<stop offset="1" stop-color="#3E71FB"/>
</linearGradient>
<linearGradient id="paint4_linear_240_36668" x1="34.3249" y1="28.3052" x2="34.7407" y2="28.4236" gradientUnits="userSpaceOnUse">
<stop stop-color="#504AF4"/>
<stop offset="1" stop-color="#3E71FB"/>
</linearGradient>
<linearGradient id="paint5_linear_240_36668" x1="36.8389" y1="18.6152" x2="38.2051" y2="18.6172" gradientUnits="userSpaceOnUse">
<stop stop-color="#504AF4"/>
<stop offset="1" stop-color="#3E71FB"/>
</linearGradient>
<linearGradient id="paint6_linear_240_36668" x1="2.97013" y1="17.9738" x2="29.1976" y2="30.9469" gradientUnits="userSpaceOnUse">
<stop stop-color="#504AF4"/>
<stop offset="1" stop-color="#3485FF"/>
</linearGradient>
<clipPath id="clip0_240_36668">
<rect width="158" height="39.4203" fill="white" transform="translate(0 0.57959)"/>
</clipPath>
</defs>
</svg>
