<svg width="20" height="20" viewBox="0 0 20 20" fill="none" xmlns="http://www.w3.org/2000/svg">
<g clip-path="url(#clip0_352_7833)">
<path d="M16.999 4.1659V12.3998M3.00134 11.6999C3.00134 12.4698 3.61325 13.0997 4.36115 13.0997H8.28469C8.47424 13.0997 8.61628 13.2733 8.57876 13.4591L8.00542 16.2982L7.98503 16.5221C7.98503 16.8091 8.10061 17.0751 8.28418 17.264L8.70576 17.6939C8.86974 17.8611 9.13927 17.8604 9.30233 17.6923L13.4786 13.3867C13.7302 13.1347 13.8798 12.7848 13.8798 12.3998V5.40099C13.8798 4.63112 13.2679 4.00122 12.52 4.00122H6.40086C5.83654 4.00122 5.35381 4.35116 5.14984 4.85508L3.09653 9.78926C3.03534 9.95024 3.00134 10.1182 3.00134 10.3002V11.6999Z" stroke="#838A95" stroke-linecap="round"/>
<g style="mix-blend-mode:darken" opacity="0.01">
<rect width="20" height="20" fill="white"/>
</g>
</g>
<defs>
<clipPath id="clip0_352_7833">
<rect width="20" height="20" fill="white"/>
</clipPath>
</defs>
</svg>
