<svg width="20" height="20" viewBox="0 0 20 20" fill="none" xmlns="http://www.w3.org/2000/svg">
<g clip-path="url(#clip0_352_7828)">
<path d="M3.00098 16.8342V8.60029M16.9987 9.30018C16.9987 8.5303 16.3867 7.90041 15.6389 7.90041H11.7153C11.5258 7.90041 11.3837 7.72682 11.4212 7.54102L11.9946 4.70194L12.015 4.47798C12.015 4.19102 11.8994 3.92507 11.7158 3.7361L11.2942 3.30623C11.1303 3.13902 10.8607 3.13977 10.6977 3.30787L6.52136 7.61346C6.2698 7.86541 6.12022 8.21536 6.12022 8.60029V15.5991C6.12022 16.369 6.73213 16.9989 7.48002 16.9989H13.5991C14.1635 16.9989 14.6462 16.649 14.8502 16.145L16.9035 11.2109C16.9647 11.0499 16.9987 10.8819 16.9987 10.6999V9.30018Z" stroke="#838A95" stroke-linecap="round"/>
<g style="mix-blend-mode:darken" opacity="0.01">
<rect width="20" height="20" fill="white"/>
</g>
</g>
<defs>
<clipPath id="clip0_352_7828">
<rect width="20" height="20" fill="white"/>
</clipPath>
</defs>
</svg>
